<?xml version="1.0" encoding="UTF-8" standalone="no"?>
<svg
   viewBox="0 0 50 50"
   width="250px"
   height="250px"
   version="1.1"
   id="svg1475"
   sodipodi:docname="icons8-git-logo.svg"
   inkscape:version="1.1.2 (0a00cf5339, 2022-02-04)"
   xmlns:inkscape="http://www.inkscape.org/namespaces/inkscape"
   xmlns:sodipodi="http://sodipodi.sourceforge.net/DTD/sodipodi-0.dtd"
   xmlns="http://www.w3.org/2000/svg"
   xmlns:svg="http://www.w3.org/2000/svg">
  <defs
     id="defs1479" />
  <sodipodi:namedview
     id="namedview1477"
     pagecolor="#ffffff"
     bordercolor="#666666"
     borderopacity="1.0"
     inkscape:pageshadow="2"
     inkscape:pageopacity="0.0"
     inkscape:pagecheckerboard="0"
     showgrid="false"
     inkscape:zoom="3.492"
     inkscape:cx="125"
     inkscape:cy="125"
     inkscape:window-width="2490"
     inkscape:window-height="1376"
     inkscape:window-x="0"
     inkscape:window-y="0"
     inkscape:window-maximized="1"
     inkscape:current-layer="svg1475" />
  <path
     d="M 46.792969 22.089844 L 27.910156 3.207031 C 27.109375 2.402344 26.054688 2 25 2 C 23.945313 2 22.890625 2.402344 22.089844 3.207031 L 18.355469 6.941406 L 22.976563 11.5625 C 24.511719 10.660156 26.511719 10.855469 27.828125 12.171875 C 29.144531 13.488281 29.335938 15.488281 28.433594 17.019531 L 32.976563 21.5625 C 34.511719 20.660156 36.511719 20.855469 37.828125 22.171875 C 39.390625 23.734375 39.390625 26.265625 37.828125 27.828125 C 36.265625 29.390625 33.734375 29.390625 32.171875 27.828125 C 30.855469 26.511719 30.660156 24.511719 31.5625 22.976563 L 27.019531 18.433594 C 26.695313 18.625 26.355469 18.765625 26 18.855469 L 26 31.140625 C 27.722656 31.585938 29 33.136719 29 35 C 29 37.210938 27.210938 39 25 39 C 22.789063 39 21 37.210938 21 35 C 21 33.136719 22.277344 31.585938 24 31.140625 L 24 18.855469 C 23.332031 18.683594 22.695313 18.351563 22.171875 17.828125 C 20.855469 16.511719 20.664063 14.511719 21.566406 12.980469 L 16.941406 8.355469 L 3.207031 22.089844 C 1.597656 23.695313 1.597656 26.304688 3.207031 27.910156 L 22.089844 46.792969 C 22.890625 47.597656 23.945313 48 25 48 C 26.054688 48 27.109375 47.597656 27.910156 46.792969 L 46.792969 27.910156 C 48.402344 26.304688 48.402344 23.695313 46.792969 22.089844 Z"
     id="path1473" />
  <path
     style="fill:#f8f2ec;stroke-width:0.827989;stroke-linecap:round;stroke-miterlimit:4.4"
     d="m 120.84765,239.42885 c -2.27556,-0.52575 -4.48602,-1.41995 -6.58648,-2.66445 C 112.93346,235.97775 101.37241,224.577 63.393153,186.60171 9.8386562,133.05281 12.908221,136.30887 11.12398,131.15693 10.410444,129.09662 10.330199,128.47677 10.326912,125 c -0.0034,-3.60225 0.05711,-4.03714 0.887046,-6.37492 0.489886,-1.37991 1.321246,-3.24847 1.847467,-4.15235 0.722091,-1.24031 9.632615,-10.33605 36.328125,-37.08324 l 35.371358,-35.439834 11.436764,11.436762 11.436758,11.436761 -0.92014,1.996274 c -2.60089,5.642709 -2.251,12.860527 0.88989,18.357151 2.08754,3.65325 6.50515,7.297422 10.46892,8.636005 l 1.77226,0.598505 v 30.574306 30.57431 l -1.74856,0.59705 c -2.73464,0.93374 -4.77807,2.28934 -7.425,4.92569 -1.96641,1.95856 -2.67516,2.90972 -3.62751,4.86827 -1.46944,3.02197 -2.09136,5.77107 -2.08588,9.22034 0.005,3.18515 0.52484,5.57314 1.81598,8.34314 2.5213,5.40913 7.28905,9.41494 13.07097,10.98207 2.53691,0.68761 7.77237,0.68761 10.30928,0 5.78192,-1.56713 10.54967,-5.57294 13.07097,-10.98207 2.59192,-5.56066 2.44645,-12.16146 -0.39337,-17.84984 -0.79885,-1.60015 -1.69382,-2.7684 -3.51009,-4.58191 -2.63888,-2.63486 -4.68139,-3.99096 -7.41895,-4.92569 l -1.74856,-0.59705 V 124.9975 94.435275 l 1.7898,-0.64043 c 0.9844,-0.352236 2.09706,-0.834842 2.47259,-1.072457 0.6739,-0.426406 0.8289,-0.285933 11.92163,10.804122 l 11.23885,11.23615 -0.83029,1.83116 c -3.17121,6.99397 -2.0277,15.65249 2.81674,21.3279 3.92304,4.59596 8.44163,6.78215 14.5483,7.03878 4.00652,0.16837 6.17766,-0.23203 9.39835,-1.73323 12.69516,-5.91735 15.60116,-22.73571 5.62348,-32.54571 -3.64142,-3.58023 -7.9164,-5.41458 -13.16044,-5.647 -3.57242,-0.15834 -6.33654,0.33976 -9.12398,1.64417 l -1.87546,0.87763 -11.26269,-11.262694 -11.26269,-11.262695 0.83419,-1.851108 c 3.77895,-8.385676 1.25363,-18.643368 -5.92826,-24.080201 -3.80876,-2.883305 -7.32826,-4.058388 -12.21158,-4.077182 -3.43199,-0.0132 -5.61873,0.431956 -8.52199,1.73486 l -1.6871,0.757124 L 103.49348,46.082549 92.052864,34.65063 102.44109,24.341352 c 11.14645,-11.061731 11.75435,-11.554823 16.18399,-13.127394 2.33459,-0.828805 2.77759,-0.890701 6.37492,-0.890701 3.59733,0 4.04033,0.0619 6.37492,0.890701 1.37991,0.489886 3.24847,1.320395 4.15235,1.845576 1.2548,0.729085 13.29924,12.603921 50.9364,50.219149 53.71647,53.685177 50.62736,50.410297 52.41235,55.564387 0.71466,2.06355 0.79341,2.6747 0.79341,6.15693 0,3.48223 -0.0788,4.09338 -0.79341,6.15693 -1.78363,5.15017 1.28138,1.89863 -52.2695,55.45058 -53.60063,53.6017 -50.33948,50.52909 -55.44959,52.24386 -2.81281,0.94387 -7.57005,1.21035 -10.30928,0.57748 z"
     id="path1538"
     transform="scale(0.2)" />
</svg>
