<?xml version="1.0" encoding="UTF-8" standalone="no"?>
<svg
   viewBox="0 0 50 50"
   width="250px"
   height="250px"
   version="1.1"
   id="svg51"
   sodipodi:docname="icons8-css-logo.svg"
   inkscape:version="1.1.2 (0a00cf5339, 2022-02-04)"
   xmlns:inkscape="http://www.inkscape.org/namespaces/inkscape"
   xmlns:sodipodi="http://sodipodi.sourceforge.net/DTD/sodipodi-0.dtd"
   xmlns="http://www.w3.org/2000/svg"
   xmlns:svg="http://www.w3.org/2000/svg">
  <defs
     id="defs55" />
  <sodipodi:namedview
     id="namedview53"
     pagecolor="#ffffff"
     bordercolor="#666666"
     borderopacity="1.0"
     inkscape:pageshadow="2"
     inkscape:pageopacity="0.0"
     inkscape:pagecheckerboard="0"
     showgrid="false"
     inkscape:zoom="4.668"
     inkscape:cx="82.047986"
     inkscape:cy="125"
     inkscape:window-width="2490"
     inkscape:window-height="1376"
     inkscape:window-x="0"
     inkscape:window-y="0"
     inkscape:window-maximized="1"
     inkscape:current-layer="svg51" />
  <path
     fill-rule="evenodd"
     d="M 42 6 L 39 40 L 25 44 L 11 40 L 8 6 Z M 16.800781 28 L 20.800781 28 L 20.898438 30.5 L 25 31.898438 L 29.101563 30.5 L 29.398438 26 L 20.601563 26 L 20.398438 22 L 29.601563 22 L 29.898438 18 L 16.101563 18 L 15.800781 14 L 34.101563 14 L 33.601563 22 L 32.898438 33.5 L 25 36.101563 L 17.101563 33.5 Z"
     id="path49" />
  <path
     style="fill:#808080;stroke-width:0.619396;stroke-linecap:round;stroke-miterlimit:4.4"
     d="m 90.032052,209.89391 -34.860834,-9.974 -0.109252,-0.6669 C 54.955823,198.60509 40.164447,30.901834 40.166212,30.366324 40.166917,30.152552 57.276963,30.098543 125,30.098543 c 67.72304,0 84.83308,0.05401 84.83379,0.267781 0.002,0.535346 -14.7896,168.238666 -14.89571,168.886456 l -0.10921,0.66666 -34.64665,9.89304 c -19.05566,5.44117 -34.79126,9.92957 -34.968,9.97423 -0.17673,0.0447 -16.00871,-4.4071 -35.182168,-9.8928 z m 54.931278,-35.83107 c 10.73803,-3.53675 19.54798,-6.45494 19.57769,-6.48486 0.0297,-0.0299 0.74049,-11.28514 1.57953,-25.01157 2.49325,-40.78899 4.27047,-69.41286 4.41256,-71.068981 l 0.13327,-1.553127 h -45.86233 c -43.535423,0 -45.86234,0.01902 -45.862739,0.374893 -6.43e-4,0.656521 1.289469,17.903031 1.410294,18.851756 l 0.115951,0.910454 h 34.484394 34.4844 l -0.11921,1.017567 c -0.10525,0.898412 -1.39512,18.191558 -1.39512,18.704228 0,0.12405 -8.82936,0.20108 -23.04836,0.20108 h -23.04837 l 0.12923,1.76736 c 0.0711,0.97204 0.27295,4.80398 0.4486,8.51542 0.17566,3.71144 0.37538,7.44698 0.44384,8.3012 l 0.12447,1.55313 h 21.93974 21.93973 l -0.009,0.482 c -0.0491,2.51032 -1.47119,21.64421 -1.6183,21.77328 -0.25103,0.22025 -19.88266,6.88106 -20.25847,6.87349 -0.15732,-0.003 -4.76868,-1.53484 -10.24748,-3.4037 l -9.96144,-3.39794 -0.13685,-0.82723 c -0.0753,-0.45498 -0.20759,-3.26136 -0.29405,-6.23641 l -0.15719,-5.40916 H 94.000015 83.832339 l 0.130103,1.55312 c 0.07156,0.85422 0.424617,7.04799 0.784578,13.76393 0.460748,8.59633 0.728852,12.24156 0.905741,12.31473 1.454169,0.60153 39.310649,13.00355 39.513509,12.94487 0.15037,-0.0435 9.05904,-2.97278 19.79706,-6.50953 z"
     id="path202"
     transform="scale(0.2)" />
  <path
     style="fill:#f8f2ec;stroke-width:0.619396;stroke-linecap:round;stroke-miterlimit:4.4;fill-opacity:1"
     d="M 121.14396,218.60292 C 89.572258,209.64464 55.453238,199.88822 55.342702,199.7869 55.18121,199.63886 54.859496,196.06781 47.881471,116.96658 40.123658,29.025852 40.271225,30.765621 40.546547,30.4903 c 0.349297,-0.349297 168.558723,-0.348185 168.908023,0.0011 0.26976,0.269759 0.30639,-0.161266 -7.66759,90.22409 -6.65336,75.41617 -6.96973,78.92483 -7.12968,79.07093 -0.138,0.12605 -68.16675,19.55427 -69.22885,19.77096 -0.30491,0.0622 -2.15015,-0.34887 -4.28449,-0.95448 z m 13.86361,-41.13139 c 20.52369,-6.75218 29.30876,-9.68577 29.48409,-9.84557 0.0998,-0.091 0.23036,-1.11524 0.29013,-2.27615 0.0598,-1.1609 0.19121,-3.12295 0.29211,-4.36009 0.1009,-1.23715 0.23646,-3.56963 0.30124,-5.18329 0.0648,-1.61366 0.1571,-3.05968 0.20515,-3.21337 0.16299,-0.52141 0.60411,-9.57876 0.48201,-9.89696 -0.0667,-0.17393 -0.0497,-0.34656 0.0379,-0.38363 0.0876,-0.0371 0.81292,-10.76791 1.61183,-23.84632 1.71674,-28.103714 2.86176,-46.34705 2.98827,-47.611394 l 0.0911,-0.910454 -45.44284,0.0029 c -24.99356,0.0017 -45.659741,0.06105 -45.924844,0.132099 -0.419263,0.112356 -0.482005,0.27015 -0.482005,1.212191 0,1.33014 1.265853,18.149713 1.393987,18.522108 0.0732,0.212732 7.168194,0.267781 34.512632,0.267781 h 34.42049 l -0.13974,1.874464 c -0.0769,1.030956 -0.3795,5.055699 -0.67253,8.943865 -0.29304,3.88818 -0.53319,7.4633 -0.53367,7.94472 l -8.6e-4,0.8753 -13.65681,0.14208 c -7.51125,0.0781 -17.9165,0.14216 -23.12278,0.14226 l -9.46598,1.7e-4 0.0937,0.69623 c 0.0515,0.38293 0.2893,4.69688 0.52835,9.58655 0.23905,4.88968 0.48187,9.10722 0.53959,9.37232 l 0.10494,0.48201 21.90037,-2.2e-4 21.90038,-2.1e-4 -0.0602,1.23208 c -0.23953,4.90296 -1.44976,20.8083 -1.5943,20.95284 -0.0909,0.0909 -11.12533,3.8729 -15.96493,5.47193 l -4.12328,1.36235 -3.80303,-1.25676 c -2.09167,-0.69122 -6.61445,-2.21609 -10.05063,-3.38859 -5.31643,-1.81409 -6.26448,-2.20085 -6.36086,-2.59488 -0.0623,-0.25468 -0.16978,-2.15006 -0.23887,-4.21198 -0.0691,-2.06191 -0.18002,-4.64063 -0.24653,-5.7305 l -0.12093,-1.98158 H 93.903018 c -9.686641,0 -10.27094,0.0215 -10.167947,0.37489 0.0601,0.2062 0.220297,2.59212 0.355996,5.30206 0.135698,2.70994 0.28367,5.04993 0.328824,5.19998 0.04515,0.15006 0.136896,1.78887 0.203871,3.64182 0.06697,1.85295 0.206761,4.47761 0.310634,5.83258 0.103873,1.35497 0.242883,3.28299 0.308914,4.28449 0.135591,2.05661 0.244023,2.97694 0.364248,3.09164 0.13835,0.132 39.067312,12.92508 39.438572,12.96056 0.0843,0.008 4.56693,-1.43744 9.96144,-3.2122 z"
     id="path241"
     transform="scale(0.2)" />
  <path
     style="fill:#f8f2ec;fill-opacity:1;stroke-width:0.619396;stroke-linecap:round;stroke-miterlimit:4.4"
     d="m 122.85775,218.93458 c -2.29778,-0.60222 -51.120556,-14.51108 -60.625531,-17.27128 -3.652527,-1.06068 -6.702247,-1.99416 -6.777153,-2.0744 -0.157979,-0.16922 -0.278861,-1.47371 -3.408112,-36.77827 C 42.343979,53.340542 40.392283,30.765957 40.611981,30.546259 c 0.231007,-0.231008 168.433639,-0.143396 168.652069,0.08785 0.30857,0.326676 0.087,3.011315 -5.22435,63.303341 -7.29795,82.84289 -9.23905,104.56448 -9.41054,105.30731 -0.066,0.28598 -0.39091,0.53507 -0.9113,0.69869 -4.37638,1.37604 -68.27669,19.53633 -68.66002,19.51299 -0.14964,-0.009 -1.13967,-0.24395 -2.20009,-0.52186 z m 9.91076,-40.60675 c 16.70348,-5.47879 31.75886,-10.52862 31.85541,-10.68483 0.057,-0.0922 0.25145,-2.42216 0.43222,-5.17777 0.81612,-12.44088 0.96377,-14.82098 1.08163,-17.43524 0.0691,-1.5317 0.26395,-4.76114 0.4331,-7.17652 0.16915,-2.41538 0.98216,-15.28492 1.80669,-28.59897 2.19244,-35.402452 2.34781,-37.849393 2.45189,-38.613969 l 0.0948,-0.696229 -45.77702,0.0033 c -26.316165,0.0019 -45.904839,0.0842 -46.077684,0.193636 -0.349912,0.221534 -0.323466,0.816154 0.543879,12.228106 0.35186,4.629544 0.651461,7.449546 0.801926,7.548134 0.132113,0.08656 15.64027,0.158865 34.462569,0.160668 l 34.22237,0.0033 v 0.511144 c 0,0.281131 -0.23599,3.631067 -0.52443,7.444302 -0.28843,3.813238 -0.58979,7.954518 -0.66968,9.202848 l -0.14526,2.26968 -4.50625,0.14034 c -2.47843,0.0772 -9.04565,0.14047 -14.59381,0.14063 -5.54816,1.6e-4 -13.92093,0.0641 -18.60615,0.14199 l -8.51859,0.14169 0.10843,0.66136 c 0.0596,0.36374 0.30228,4.5656 0.53922,9.33745 0.23694,4.77185 0.48315,8.98939 0.54712,9.37232 l 0.11632,0.69623 h 21.84119 21.84119 v 1.17316 c 0,2.99501 -1.40045,20.67123 -1.65649,20.90793 -0.16764,0.15497 -5.8,2.11091 -14.85054,5.15712 l -5.04603,1.69838 -9.09279,-3.10081 c -10.30984,-3.51585 -10.61169,-3.63086 -10.87918,-4.1452 -0.10734,-0.20638 -0.25687,-1.91766 -0.3323,-3.80284 -0.0754,-1.88517 -0.19629,-4.4639 -0.26858,-5.7305 l -0.13144,-2.30291 h -10.2426 c -5.633415,0 -10.281182,0.0723 -10.328374,0.16066 -0.04719,0.0884 -0.012,1.17288 0.07819,2.41003 0.0902,1.23715 0.318436,4.94859 0.507198,8.24764 0.516667,9.03 0.969784,15.78261 1.103194,16.44047 0.11626,0.57328 0.496967,0.71221 15.365972,5.60755 22.59248,7.43814 23.77284,7.81836 24.30061,7.82771 0.26668,0.005 3.73712,-1.05815 7.71208,-2.36195 z"
     id="path1206"
     transform="scale(0.2)" />
  <circle
     id="path1497"
     style="fill:#f8f2ec;stroke:#000000;stroke-width:0.2"
     cx="45.426643"
     cy="8.6588535"
     r="0.012472877" />
  <circle
     id="path1499"
     style="fill:#f8f2ec;stroke:#000000;stroke-width:0.2"
     cx="45.426643"
     cy="8.6588535"
     r="0.012472877" />
</svg>
