<?xml version="1.0" encoding="UTF-8" standalone="no"?>
<svg
   viewBox="0 0 50 50"
   width="250px"
   height="250px"
   version="1.1"
   id="svg1491"
   sodipodi:docname="icons8-javascript-250.svg"
   inkscape:version="1.1.2 (0a00cf5339, 2022-02-04)"
   xmlns:inkscape="http://www.inkscape.org/namespaces/inkscape"
   xmlns:sodipodi="http://sodipodi.sourceforge.net/DTD/sodipodi-0.dtd"
   xmlns="http://www.w3.org/2000/svg"
   xmlns:svg="http://www.w3.org/2000/svg">
  <defs
     id="defs1495" />
  <sodipodi:namedview
     id="namedview1493"
     pagecolor="#ffffff"
     bordercolor="#666666"
     borderopacity="1.0"
     inkscape:pageshadow="2"
     inkscape:pageopacity="0.0"
     inkscape:pagecheckerboard="0"
     showgrid="false"
     inkscape:zoom="3.492"
     inkscape:cx="125"
     inkscape:cy="125"
     inkscape:window-width="2490"
     inkscape:window-height="1376"
     inkscape:window-x="0"
     inkscape:window-y="0"
     inkscape:window-maximized="1"
     inkscape:current-layer="svg1491" />
  <path
     d="M 43.335938 4 L 6.667969 4 C 5.195313 4 4 5.195313 4 6.667969 L 4 43.332031 C 4 44.804688 5.195313 46 6.667969 46 L 43.332031 46 C 44.804688 46 46 44.804688 46 43.335938 L 46 6.667969 C 46 5.195313 44.804688 4 43.335938 4 Z M 27 36.183594 C 27 40.179688 24.65625 42 21.234375 42 C 18.140625 42 15.910156 39.925781 15 38 L 18.144531 36.097656 C 18.75 37.171875 19.671875 38 21 38 C 22.269531 38 23 37.503906 23 35.574219 L 23 23 L 27 23 Z M 35.675781 42 C 32.132813 42 30.121094 40.214844 29 38 L 32 36 C 32.816406 37.335938 33.707031 38.613281 35.589844 38.613281 C 37.171875 38.613281 38 37.824219 38 36.730469 C 38 35.425781 37.140625 34.960938 35.402344 34.199219 L 34.449219 33.789063 C 31.695313 32.617188 29.863281 31.148438 29.863281 28.039063 C 29.863281 25.179688 32.046875 23 35.453125 23 C 37.878906 23 39.621094 23.84375 40.878906 26.054688 L 37.910156 27.964844 C 37.253906 26.789063 36.550781 26.328125 35.453125 26.328125 C 34.335938 26.328125 33.628906 27.039063 33.628906 27.964844 C 33.628906 29.109375 34.335938 29.570313 35.972656 30.28125 L 36.925781 30.691406 C 40.171875 32.078125 42 33.496094 42 36.683594 C 42 40.117188 39.300781 42 35.675781 42 Z"
     id="path1489" />
  <path
     style="fill:#f8f2ec;stroke-width:0.827989;stroke-linecap:round;stroke-miterlimit:4.4"
     d="m 29.955507,229.35891 c -4.634926,-1.24969 -8.512049,-5.3202 -9.465404,-9.93752 -0.217811,-1.05491 -0.286445,-29.08957 -0.233265,-95.2805 l 0.07535,-93.785793 0.666427,-1.650688 c 1.36071,-3.370374 4.337144,-6.345166 7.712593,-7.708338 l 1.643889,-0.663883 H 125 219.6449 l 1.65069,0.666427 c 3.37038,1.36071 6.34517,4.337144 7.70834,7.712593 l 0.66388,1.643889 V 125 219.6449 l -0.66388,1.64389 c -1.36317,3.37545 -4.33796,6.35189 -7.70834,7.7126 l -1.65069,0.66642 -94.07216,0.0539 c -81.537344,0.0467 -94.278042,-0.002 -95.617233,-0.36275 z M 111.97022,209.7552 c 7.23747,-1.02899 13.29068,-4.13109 17.01268,-8.71855 1.8177,-2.24034 3.77282,-5.93193 4.57601,-8.64022 1.48319,-5.0012 1.464,-4.44742 1.464,-42.23348 V 114.97709 H 125 114.97709 l -0.005,31.42898 c -0.003,18.17399 -0.12164,32.53624 -0.2816,34.05441 -0.3632,3.44692 -1.18419,5.59006 -2.73579,7.14166 -1.71264,1.71264 -3.53147,2.2111 -7.5644,2.07306 -2.93209,-0.10036 -3.18029,-0.15927 -5.477644,-1.30019 -2.732465,-1.35699 -5.082044,-3.48123 -6.981099,-6.31154 l -1.197901,-1.78533 -7.852532,4.74817 c -4.318892,2.61151 -7.905578,4.79957 -7.970415,4.86237 -0.184659,0.17885 1.352632,2.9124 2.955381,5.25512 1.747783,2.55472 5.293422,6.18899 8.033702,8.23452 3.907704,2.91698 9.568417,5.39402 14.280698,6.24901 2.47976,0.44993 9.02513,0.52092 11.78969,0.12787 z m 75.88329,-0.55803 c 5.89294,-1.27096 10.8081,-3.66076 14.3836,-6.99347 3.49923,-3.26161 5.46326,-6.39977 6.86213,-10.96445 0.72126,-2.35354 0.77379,-2.886 0.78562,-7.96319 0.0112,-4.78706 -0.0652,-5.72656 -0.63573,-7.81685 -2.68599,-9.8417 -9.48459,-15.78389 -26.11625,-22.8264 -5.57139,-2.35915 -10.32411,-4.84163 -11.86343,-6.19659 -2.05038,-1.80482 -2.85603,-3.60538 -2.86445,-6.40186 -0.006,-2.00754 0.0986,-2.48453 0.8456,-3.85579 1.01328,-1.86 2.75062,-3.26525 4.78309,-3.86882 2.0714,-0.61515 5.2219,-0.55693 7.4224,0.13716 2.95515,0.93211 4.35697,2.19385 7.77695,6.99978 0.37818,0.53144 0.74087,0.33668 7.67244,-4.12005 4.00153,-2.57283 7.37443,-4.76554 7.49534,-4.87271 0.28043,-0.24857 -1.67477,-3.29618 -3.76148,-5.8631 -3.27494,-4.02861 -8.33091,-7.17667 -13.92685,-8.67144 -2.66981,-0.71316 -3.28053,-0.76599 -9.02062,-0.7803 -5.46536,-0.0136 -6.44022,0.0567 -8.67898,0.62575 -7.94656,2.02003 -14.0269,6.62269 -17.30724,13.10114 -3.29883,6.51496 -3.24779,17.35478 0.113,23.99985 3.59509,7.10834 9.34618,11.47266 22.72316,17.2439 7.49203,3.23229 10.51482,4.89138 12.47956,6.84954 2.10236,2.09531 2.69924,3.58482 2.69519,6.72576 -0.004,2.78679 -0.77941,4.53807 -2.82518,6.37739 -2.25782,2.02998 -4.39806,2.66684 -8.91314,2.65224 -4.22916,-0.0137 -6.1298,-0.55104 -9.22729,-2.60883 -2.31267,-1.53641 -4.19936,-3.58925 -6.73757,-7.33092 -1.04173,-1.53565 -2.00137,-2.79209 -2.13253,-2.79209 -0.16962,0 -14.31265,9.27916 -15.0578,9.87933 -0.0438,0.0353 0.45917,1.01626 1.11765,2.18001 5.57485,9.85269 14.07008,15.74565 25.33636,17.5753 3.82225,0.62074 12.80571,0.39297 16.57645,-0.42029 z"
     id="path1763"
     transform="scale(0.2)" />
</svg>
