<?xml version="1.0" encoding="UTF-8" standalone="no"?>
<svg
   viewBox="0 0 50 50"
   width="250px"
   height="250px"
   version="1.1"
   id="svg1483"
   sodipodi:docname="icons8-html-logo.svg"
   inkscape:version="1.1.2 (0a00cf5339, 2022-02-04)"
   xmlns:inkscape="http://www.inkscape.org/namespaces/inkscape"
   xmlns:sodipodi="http://sodipodi.sourceforge.net/DTD/sodipodi-0.dtd"
   xmlns="http://www.w3.org/2000/svg"
   xmlns:svg="http://www.w3.org/2000/svg">
  <defs
     id="defs1487" />
  <sodipodi:namedview
     id="namedview1485"
     pagecolor="#ffffff"
     bordercolor="#666666"
     borderopacity="1.0"
     inkscape:pageshadow="2"
     inkscape:pageopacity="0.0"
     inkscape:pagecheckerboard="0"
     showgrid="false"
     inkscape:zoom="3.492"
     inkscape:cx="125"
     inkscape:cy="125"
     inkscape:window-width="2490"
     inkscape:window-height="1376"
     inkscape:window-x="0"
     inkscape:window-y="0"
     inkscape:window-maximized="1"
     inkscape:current-layer="svg1483" />
  <path
     d="M 45.273438 2.324219 C 45.085938 2.117188 44.816406 2 44.535156 2 L 5.464844 2 C 5.183594 2 4.914063 2.117188 4.726563 2.324219 C 4.535156 2.53125 4.441406 2.808594 4.46875 3.089844 L 7.988281 42.515625 C 8.023438 42.929688 8.3125 43.273438 8.710938 43.390625 L 24.722656 47.960938 C 24.808594 47.988281 24.902344 48 24.996094 48 C 25.089844 48 25.179688 47.988281 25.269531 47.960938 L 41.292969 43.390625 C 41.691406 43.273438 41.976563 42.929688 42.015625 42.515625 L 45.53125 3.089844 C 45.558594 2.808594 45.464844 2.53125 45.273438 2.324219 Z M 36.847656 15.917969 L 18.035156 15.917969 L 18.484375 21.007813 L 36.394531 21.007813 L 35.050781 36.050781 L 24.992188 39.089844 L 24.894531 39.058594 L 14.953125 36.046875 L 14.410156 29.917969 L 19.28125 29.917969 L 19.492188 32.296875 L 25.050781 33.460938 L 30.507813 32.296875 L 31.089844 25.859375 L 14.046875 25.859375 L 12.722656 11.054688 L 37.28125 11.054688 Z"
     id="path1481" />
  <path
     style="fill:#f8f2ec;stroke-width:0.827989;stroke-linecap:round;stroke-miterlimit:4.4"
     d="m 83.217162,228.12041 c -40.64894,-11.63715 -40.783579,-11.67814 -41.721023,-12.70107 -0.517264,-0.56443 -1.062961,-1.51984 -1.212661,-2.12313 -0.1497,-0.60329 -4.237649,-45.63285 -9.084331,-100.06568 l -8.81215,-98.96879 0.614968,-1.260308 c 0.339792,-0.696368 1.087999,-1.580658 1.672109,-1.976232 l 1.057142,-0.715922 98.940074,-0.07282 c 98.25829,-0.07232 98.94811,-0.06889 100.1069,0.496896 1.33887,0.653717 2.41316,2.075345 2.62774,3.477333 0.12191,0.796577 -16.97447,194.506013 -17.5038,198.325603 -0.18414,1.32877 -1.05193,2.77465 -2.14153,3.56816 -0.8568,0.62397 -81.6673,23.73375 -82.90378,23.7084 -0.47251,-0.01 -19.21036,-5.27128 -41.639658,-11.69244 z m 67.126478,-40.16273 c 13.70275,-4.12768 24.94317,-7.52157 24.97872,-7.54199 0.0908,-0.0521 6.66504,-73.70748 6.66504,-74.6723 v -0.78921 H 137.32684 92.666274 l -0.152259,-0.9307 C 92.430272,103.5116 91.97205,98.518041 91.495745,92.92669 91.019439,87.335338 90.551801,82.084049 90.456555,81.257159 l -0.173179,-1.503436 h 46.992034 46.99203 l 0.13467,-0.64433 c 0.0741,-0.354382 0.52909,-5.283505 1.01115,-10.953608 0.48206,-5.670103 0.95147,-10.921392 1.04313,-11.669531 l 0.16666,-1.360252 H 125 63.376953 l 0.172964,1.360252 c 0.19482,1.532139 6.467265,71.743926 6.467265,72.392536 0,0.36288 5.517772,0.41674 42.694128,0.41674 h 42.69413 l -0.16095,1.07389 c -0.0885,0.59063 -0.75972,7.77491 -1.49156,15.96506 -0.73183,8.19015 -1.35853,14.92391 -1.39266,14.96391 -0.0341,0.04 -6.1413,1.37254 -13.57149,2.9612 l -13.50944,2.88848 -13.79136,-2.89105 c -7.58525,-1.59008 -13.821044,-2.92262 -13.857333,-2.96121 -0.03629,-0.0386 -0.293585,-2.74412 -0.57177,-6.0123 l -0.505793,-5.94216 H 84.287426 72.021764 v 0.82051 c 0,1.50934 2.592417,29.9314 2.744742,30.09207 0.253869,0.26778 49.183974,15.12895 49.947124,15.17006 0.39376,0.0212 11.92726,-3.33862 25.63001,-7.46631 z"
     id="path1619"
     transform="scale(0.2)" />
</svg>
