<?xml version="1.0" encoding="UTF-8" standalone="no"?>
<svg
   viewBox="0 0 1418 125"
   fill="#000"
   version="1.1"
   id="svg4"
   sodipodi:docname="needle-underline.svg"
   inkscape:version="1.1.2 (0a00cf5339, 2022-02-04)"
   xmlns:inkscape="http://www.inkscape.org/namespaces/inkscape"
   xmlns:sodipodi="http://sodipodi.sourceforge.net/DTD/sodipodi-0.dtd"
   xmlns="http://www.w3.org/2000/svg"
   xmlns:svg="http://www.w3.org/2000/svg">
  <defs
     id="defs8" />
  <sodipodi:namedview
     id="namedview6"
     pagecolor="#ffffff"
     bordercolor="#666666"
     borderopacity="1.0"
     inkscape:pageshadow="2"
     inkscape:pageopacity="0.0"
     inkscape:pagecheckerboard="0"
     showgrid="false"
     inkscape:zoom="0.94358251"
     inkscape:cx="709"
     inkscape:cy="61.997758"
     inkscape:window-width="2490"
     inkscape:window-height="1376"
     inkscape:window-x="0"
     inkscape:window-y="0"
     inkscape:window-maximized="1"
     inkscape:current-layer="svg4" />
  <path
     d="M1412.29 72.17c-11.04-5.78-20.07-14.33-85.46-25.24-22.37-3.63-44.69-7.56-67.07-11.04-167.11-22.06-181.65-21.24-304.94-30.56C888.78 1.39 822.57 1.1 756.44 0c-46.63-.11-93.27 1.56-139.89 2.5C365.5 13.55 452.86 7.68 277.94 23.15 202.57 33.32 127.38 45.01 52.07 55.69c-11.23 2.41-22.63 4.17-33.71 7.22C6.1 66.33 5.64 66.19 3.89 67.79c-7.99 5.78-2.98 20.14 8.72 17.5 33.99-9.47 32.28-8.57 178.06-29.66 4.26 4.48 7.29 3.38 18.42 3.11 13.19-.32 26.38-.53 39.56-1.12 53.51-3.81 106.88-9.62 160.36-13.95 18.41-1.3 36.8-3.12 55.21-4.7 23.21-1.16 46.43-2.29 69.65-3.4 120.28-2.16 85.46-3.13 234.65-1.52 23.42.99 1.57-.18 125.72 6.9 96.61 8.88 200.92 27.94 295.42 46.12 40.87 7.91 116.67 23.2 156.31 36.78 3.81 1.05 8.28-.27 10.51-3.58 3.17-3.72 2.66-9.7-.78-13.13-3.25-3.12-8.14-3.44-12.18-5.08-17.89-5.85-44.19-12.09-63.67-16.56l26.16 3.28c23.02 3.13 46.28 3.92 69.34 6.75 10.8.96 25.43 1.81 34.34-4.39 2.26-1.54 4.86-2.75 6.21-5.27 2.76-4.59 1.13-11.06-3.59-13.68ZM925.4 23.77c37.64 1.4 153.99 10.85 196.64 14.94 45.95 5.51 91.89 11.03 137.76 17.19 24.25 4.77 74.13 11.21 101.72 18.14-11.87-1.15-23.77-1.97-35.65-3.06-133.46-15.9-266.8-33.02-400.47-47.21Z"
     id="path2" />
  <path
     style="fill:#ffffff;stroke-width:0.423916"
     d="M 1341.1652,121.74418 C 1308.2761,109.54729 1168.4563,80.623349 1044.9537,60.468132 956.64956,46.057188 918.41124,41.790555 835.1151,37.05434 772.00615,33.465967 767.39898,33.344416 689.92377,33.223769 542.01244,32.993435 490.74579,35.417503 328.00523,50.336547 c -60.45022,5.5417 -72.67956,6.43156 -101.54171,7.388613 -24.86076,0.824368 -28.98201,0.732534 -32.93885,-0.733973 -4.38644,-1.625726 -6.13286,-1.44449 -57.9568,6.014448 C 67.343928,72.825001 42.97035,76.871783 26.494768,81.115208 7.6841843,85.960033 8.2987418,85.916959 4.4301194,82.661727 1.7007638,80.365127 1.0597907,79.037491 1.0597907,75.680828 c 0,-5.588524 2.4295065,-7.754017 11.8587353,-10.57005 C 32.853625,59.157173 63.850498,54.190708 220.96637,31.776369 273.6332,24.262855 314.21598,19.952028 390.00299,13.820781 432.01893,10.421647 597.52483,3.3632088 678.79596,1.5044376 c 71.28132,-1.63029177 189.67487,-0.101068 255.40957,3.2989823 27.19325,1.4065389 127.74427,8.8724361 157.37897,11.6853561 105.8994,10.051982 241.4296,29.650236 282.9329,40.913323 20.7659,5.6354 38.4845,14.153743 41.1923,19.803492 3.6767,7.671249 -4.4329,15.110874 -19.2924,17.698564 -5.9935,1.0437 -11.8946,0.801481 -39.1038,-1.605067 -17.6248,-1.558845 -41.695,-3.99339 -53.4891,-5.410099 -11.7942,-1.416709 -22.2861,-2.543335 -23.3154,-2.503613 -1.0294,0.03972 10.0512,3.090551 24.6233,6.779619 47.1054,11.925155 52.4596,14.211385 52.4596,22.399675 0,7.72362 -6.8668,10.72482 -16.4267,7.17951 z m 19.4967,-48.086526 C 1358.0608,72.13717 1336.5584,68.081551 1294.0045,61.085222 1230.9858,50.72426 1139.645,39.482515 1073.568,33.955072 989.7032,26.939644 924.31597,22.496716 926.04483,23.931176 c 0.40819,0.338678 19.10304,2.609173 41.54411,5.045543 50.37786,5.469397 117.98696,13.434754 253.28996,29.841361 88.0608,10.678097 127.8074,15.164074 139.3625,15.729073 1.8091,0.08845 1.8706,-0.04186 0.4205,-0.889499 z"
     id="path1262" />
</svg>
